<svg width="448" height="126" viewBox="0 0 448 126" fill="none" xmlns="http://www.w3.org/2000/svg">
<path d="M18.036 4.04C26.838 4.04 33.696 7.064 33.696 16.568C33.696 25.694 26.838 29.798 18.252 29.798H12.906V44H4.914V4.04H18.036ZM17.712 23.48C23.166 23.48 25.866 21.158 25.866 16.568C25.866 11.87 23.004 10.358 17.442 10.358H12.906V23.48H17.712ZM51.5485 44.756C43.9885 44.756 37.0225 38.87 37.0225 28.934C37.0225 18.836 43.9885 13.004 51.5485 13.004C59.1085 13.004 66.0745 18.836 66.0745 28.934C66.0745 38.87 59.1085 44.756 51.5485 44.756ZM51.5485 38.276C55.6525 38.276 57.9745 34.604 57.9745 28.934C57.9745 23.102 55.6525 19.484 51.5485 19.484C47.4445 19.484 45.1225 23.102 45.1225 28.934C45.1225 34.604 47.4445 38.276 51.5485 38.276ZM72.7152 0.907998H80.5992V44H72.7152V0.907998ZM89.0464 8.9V1.232H96.9304V8.9H89.0464ZM88.9924 13.76H96.8764V44H88.9924V13.76Z" fill="#52E31F"/>
<path d="M113.312 44.756C109.208 44.756 104.834 43.028 101.81 40.49L105.428 35.522C108.182 37.628 110.72 38.816 113.528 38.816C116.552 38.816 117.902 37.52 117.902 35.63C117.902 33.362 114.77 32.39 111.584 31.094C107.75 29.69 103.322 27.314 103.322 22.292C103.322 16.838 107.804 13.004 114.554 13.004C119.09 13.004 122.33 14.84 124.868 16.73L121.304 21.536C119.144 20.024 117.092 18.944 114.77 18.944C112.016 18.944 110.774 20.132 110.774 21.86C110.774 24.02 113.744 24.938 116.93 26.072C120.926 27.638 125.354 29.528 125.354 35.198C125.354 40.49 121.196 44.756 113.312 44.756ZM144.261 44.756C135.891 44.756 129.519 38.87 129.519 28.934C129.519 18.836 136.755 13.004 144.963 13.004C148.689 13.004 151.551 14.462 153.765 16.352L149.985 21.482C148.473 20.186 147.069 19.484 145.341 19.484C140.751 19.484 137.619 23.102 137.619 28.934C137.619 33.524 139.887 38.276 145.125 38.276C147.285 38.276 149.337 37.304 151.011 35.846L154.143 41.084C151.281 43.622 147.717 44.756 144.261 44.756ZM170.886 44.756C163.326 44.756 156.36 38.87 156.36 28.934C156.36 18.836 163.326 13.004 170.886 13.004C178.446 13.004 185.412 18.836 185.412 28.934C185.412 38.87 178.446 44.756 170.886 44.756ZM170.886 38.276C174.99 38.276 177.312 34.604 177.312 28.934C177.312 23.102 174.99 19.484 170.886 19.484C166.782 19.484 164.46 23.102 164.46 28.934C164.46 34.604 166.782 38.276 170.886 38.276ZM198.533 13.76L199.073 19.106H199.289C201.503 15.164 204.635 13.004 207.875 13.004C209.549 13.004 210.521 13.274 211.439 13.652L210.035 20.51C209.009 20.132 208.145 20.024 206.903 20.024C204.527 20.024 201.665 21.59 199.937 25.964V44H192.053V13.76H198.533ZM228.695 44.756C220.271 44.756 213.683 38.87 213.683 28.934C213.683 19.16 220.595 13.004 227.777 13.004C236.093 13.004 240.413 19.106 240.413 27.476C240.413 28.934 240.251 30.392 240.035 31.094H221.405C222.053 36.062 225.239 38.654 229.775 38.654C232.313 38.654 234.419 37.898 236.579 36.548L239.279 41.408C236.255 43.514 232.583 44.756 228.695 44.756ZM233.609 25.856C233.609 21.752 231.773 19.16 227.885 19.16C224.699 19.16 221.891 21.482 221.297 25.856H233.609ZM9.126 72.04L12.312 91.534C12.906 95.854 13.554 99.958 14.148 104.278H14.364C15.174 99.958 16.038 95.692 16.902 91.534L21.546 72.04H28.35L32.994 91.534C33.858 95.638 34.668 99.958 35.532 104.278H35.802C36.396 99.958 36.99 95.692 37.584 91.534L40.716 72.04H48.33L40.932 112H30.996L26.514 92.236C25.866 88.996 25.272 86.026 24.786 83.002H24.57C23.976 86.026 23.49 88.996 22.842 92.236L18.468 112H8.694L0.972 72.04H9.126ZM66.8001 112.756C58.3761 112.756 51.7881 106.87 51.7881 96.934C51.7881 87.16 58.7001 81.004 65.8821 81.004C74.1981 81.004 78.5181 87.106 78.5181 95.476C78.5181 96.934 78.3561 98.392 78.1401 99.094H59.5101C60.1581 104.062 63.3441 106.654 67.8801 106.654C70.4181 106.654 72.5241 105.898 74.6841 104.548L77.3841 109.408C74.3601 111.514 70.6881 112.756 66.8001 112.756ZM71.7141 93.856C71.7141 89.752 69.8781 87.16 65.9901 87.16C62.8041 87.16 59.9961 89.482 59.4021 93.856H71.7141ZM98.1771 112.756C89.7531 112.756 83.1651 106.87 83.1651 96.934C83.1651 87.16 90.0771 81.004 97.2591 81.004C105.575 81.004 109.895 87.106 109.895 95.476C109.895 96.934 109.733 98.392 109.517 99.094H90.8871C91.5351 104.062 94.7211 106.654 99.2571 106.654C101.795 106.654 103.901 105.898 106.061 104.548L108.761 109.408C105.737 111.514 102.065 112.756 98.1771 112.756ZM103.091 93.856C103.091 89.752 101.255 87.16 97.3671 87.16C94.1811 87.16 91.3731 89.482 90.7791 93.856H103.091ZM124.154 68.908V94.828H124.37L134.846 81.76H143.486L133.01 94.126L144.458 112H135.872L128.528 99.472L124.154 104.44V112H116.432V68.908H124.154ZM149.127 68.908H157.011V112H149.127V68.908ZM170.103 124.15L174.315 112.162L162.597 81.76H170.589L175.395 95.8C176.313 98.554 177.069 101.308 177.933 104.332H178.203C178.905 101.524 179.661 98.608 180.363 95.8L184.521 81.76H192.135L181.659 112.864L177.933 124.15H170.103ZM223.605 96.88H218.043V112H210.051V72.04H223.983C232.407 72.04 238.995 74.902 238.995 84.136C238.995 90.238 235.971 93.856 231.381 95.638L240.723 112H231.813L223.605 96.88ZM223.227 90.562C228.411 90.562 231.165 88.456 231.165 84.136C231.165 79.816 228.411 78.358 223.227 78.358H218.043V90.562H223.227ZM253.663 112.54C248.263 112.54 244.699 109.03 244.699 103.792C244.321 96.394 249.559 92.992 262.087 92.614C262.249 91.318 261.979 90.022 261.385 88.78C260.737 87.862 259.279 87.376 256.957 87.376C254.149 87.376 250.963 88.456 248.209 90.238L245.833 84.568C249.127 82.57 253.663 81.004 258.415 81.004C266.137 81.004 270.025 85.432 270.025 94.342V112H263.545L262.951 108.922H262.789C260.197 111.136 257.119 112.54 253.663 112.54ZM256.093 106.492C258.415 106.438 260.197 105.466 262.087 103.576V97.474C260.197 97.636 258.361 97.798 256.633 98.068C253.177 98.554 251.935 100.282 251.989 102.442C252.043 104.98 253.771 106.492 256.093 106.492ZM284.596 81.76L285.136 85.756H285.352C287.998 83.164 291.076 81.004 295.18 81.004C301.714 81.004 304.522 85.54 304.522 93.154V112H296.584V94.126C296.584 89.428 295.342 87.808 292.318 87.808C289.78 87.808 288.322 88.996 286 91.21V112H278.116V81.76H284.596ZM320.431 68.908V94.828H320.647L331.123 81.76H339.763L329.287 94.126L340.735 112H332.149L324.805 99.472L320.431 104.44V112H312.709V68.908H320.431ZM344.703 76.9V69.232H352.587V76.9H344.703ZM344.649 81.76H352.533V112H344.649V81.76ZM366.809 81.76L367.349 85.756H367.565C370.211 83.164 373.289 81.004 377.393 81.004C383.927 81.004 386.735 85.54 386.735 93.154V112H378.797V94.126C378.797 89.428 377.555 87.808 374.531 87.808C371.993 87.808 370.535 88.996 368.213 91.21V112H360.329V81.76H366.809ZM405.56 125.122C398.432 125.122 392.924 122.692 392.924 117.346C392.924 114.808 394.49 112.648 397.244 111.082V110.812C395.678 109.786 394.49 108.274 394.49 105.736C394.49 103.414 396.056 101.362 397.838 100.066V99.85C395.732 98.338 393.842 95.476 393.842 91.966C393.842 84.838 399.62 81.004 406.046 81.004C407.72 81.004 409.34 81.328 410.582 81.76H421.49V87.592H416.306C417.116 88.618 417.71 90.292 417.71 92.182C417.71 98.932 412.526 102.442 406.046 102.442C404.804 102.442 403.454 102.172 402.158 101.74C401.294 102.442 400.862 103.09 400.862 104.332C400.862 106.006 401.942 106.816 405.614 106.816H410.744C418.142 106.816 421.976 108.976 421.976 114.376C421.976 120.478 415.712 125.122 405.56 125.122ZM406.046 97.528C408.692 97.528 410.744 95.638 410.744 91.966C410.744 88.294 408.8 86.404 406.046 86.404C403.292 86.404 401.294 88.294 401.294 91.966C401.294 95.638 403.4 97.528 406.046 97.528ZM406.748 120.1C411.284 120.1 414.416 118.102 414.416 115.726C414.416 113.566 412.634 113.026 409.394 113.026H405.722C403.832 113.026 402.59 112.864 401.51 112.594C400.16 113.674 399.512 114.862 399.512 116.104C399.512 118.642 402.212 120.1 406.748 120.1ZM435.783 112.756C431.679 112.756 427.305 111.028 424.281 108.49L427.899 103.522C430.653 105.628 433.191 106.816 435.999 106.816C439.023 106.816 440.373 105.52 440.373 103.63C440.373 101.362 437.241 100.39 434.055 99.094C430.221 97.69 425.793 95.314 425.793 90.292C425.793 84.838 430.275 81.004 437.025 81.004C441.561 81.004 444.801 82.84 447.339 84.73L443.775 89.536C441.615 88.024 439.563 86.944 437.241 86.944C434.487 86.944 433.245 88.132 433.245 89.86C433.245 92.02 436.215 92.938 439.401 94.072C443.397 95.638 447.825 97.528 447.825 103.198C447.825 108.49 443.667 112.756 435.783 112.756Z" fill="#ECEEF0"/>
</svg>
