<?xml version="1.0" encoding="utf-8"?>
<!-- Generator: Adobe Illustrator 27.6.1, SVG Export Plug-In . SVG Version: 6.00 Build 0)  -->
<svg version="1.1" id="Layer_1" xmlns="http://www.w3.org/2000/svg" xmlns:xlink="http://www.w3.org/1999/xlink" x="0px" y="0px"
	 viewBox="0 0 609 180" style="enable-background:new 0 0 609 180;" xml:space="preserve">
<style type="text/css">
	.st0{fill:#7DE04B;}
	.st1{fill:#FFFFFF;}
</style>
<g>
	<g>
		<path class="st0" d="M13.6,61.8v36.5H0V8.4h15.4c7.5,0,13.2,0.5,17.1,1.6c3.9,1.1,7.3,3,10.2,5.9c5.2,5.1,7.8,11.4,7.8,19.1
			c0,8.2-2.8,14.8-8.3,19.6c-5.5,4.8-13,7.2-22.3,7.2L13.6,61.8L13.6,61.8z M13.6,49.3h5.1c12.5,0,18.7-4.8,18.7-14.4
			c0-9.3-6.4-13.9-19.3-13.9h-4.5L13.6,49.3L13.6,49.3z"/>
		<path class="st0" d="M52.2,69.6c0-8.2,2.9-15.2,8.8-20.9c5.9-5.7,13-8.6,21.4-8.6c8.5,0,15.7,2.9,21.6,8.7
			c5.8,5.8,8.7,12.9,8.7,21.3c0,8.5-2.9,15.6-8.8,21.4C98,97.2,90.8,100,82.2,100c-8.5,0-15.6-2.9-21.4-8.7
			C55.1,85.5,52.2,78.3,52.2,69.6z M65.6,69.8c0,5.7,1.5,10.2,4.5,13.4c3.1,3.3,7.2,5,12.3,5c5.1,0,9.2-1.7,12.3-4.9
			c3.1-3.3,4.6-7.7,4.6-13.2s-1.5-9.9-4.6-13.2c-3.1-3.3-7.2-5-12.3-5c-5,0-9.1,1.7-12.2,5C67.2,60.2,65.6,64.6,65.6,69.8z"/>
		<path class="st0" d="M136.1,0v98.4H123V0H136.1z"/>
		<path class="st0" d="M147.2,18c0-2.3,0.8-4.3,2.5-5.9s3.7-2.5,6-2.5c2.4,0,4.4,0.8,6.1,2.5c1.7,1.6,2.5,3.6,2.5,6
			s-0.8,4.4-2.5,6.1c-1.6,1.7-3.6,2.5-6,2.5s-4.4-0.8-6.1-2.5C148,22.5,147.2,20.5,147.2,18z M162.2,41.6v56.7h-13.1V41.6H162.2z"/>
		<path class="st1" d="M208.2,51.3l-10.8,5.8c-1.7-3.5-3.8-5.2-6.4-5.2c-1.2,0-2.2,0.4-3.1,1.2c-0.9,0.8-1.3,1.8-1.3,3.1
			c0,2.2,2.5,4.3,7.6,6.5c6.9,3,11.6,5.8,14,8.3c2.4,2.5,3.6,5.9,3.6,10.2c0,5.5-2,10.1-6.1,13.8c-3.9,3.5-8.7,5.2-14.2,5.2
			c-9.5,0-16.2-4.6-20.2-13.9l11.2-5.2c1.6,2.7,2.7,4.4,3.6,5.2c1.6,1.5,3.5,2.2,5.7,2.2c4.4,0,6.6-2,6.6-6.1c0-2.3-1.7-4.5-5.1-6.5
			c-1.3-0.7-2.6-1.3-4-1.9c-1.3-0.6-2.7-1.3-4-1.9c-3.8-1.9-6.5-3.7-8-5.6c-2-2.4-3-5.4-3-9.1c0-4.9,1.7-9,5.1-12.2
			c3.4-3.2,7.6-4.8,12.6-4.8C199.3,40.1,204.7,43.8,208.2,51.3z"/>
		<path class="st1" d="M264.2,44.1v17.4c-3-3.7-5.7-6.2-8-7.5c-2.3-1.4-5.1-2.1-8.2-2.1c-4.9,0-9,1.7-12.3,5.2
			c-3.3,3.5-4.9,7.8-4.9,13c0,5.3,1.6,9.7,4.7,13.1c3.2,3.4,7.2,5.1,12.2,5.1c3.1,0,5.9-0.7,8.3-2c2.3-1.3,5.1-3.9,8.2-7.7v17.3
			c-5.3,2.8-10.6,4.1-16,4.1c-8.8,0-16.1-2.8-22-8.5c-5.9-5.7-8.9-12.8-8.9-21.3c0-8.5,3-15.6,9-21.4s13.3-8.7,22-8.7
			C254,40.1,259.3,41.4,264.2,44.1z"/>
		<path class="st1" d="M270.7,69.6c0-8.2,2.9-15.2,8.8-20.9c5.9-5.7,13-8.6,21.4-8.6c8.5,0,15.6,2.9,21.5,8.7
			c5.8,5.8,8.7,12.9,8.7,21.3c0,8.5-2.9,15.6-8.8,21.4c-5.9,5.7-13.1,8.6-21.7,8.6c-8.5,0-15.6-2.9-21.4-8.7
			C273.5,85.5,270.7,78.3,270.7,69.6z M284.1,69.8c0,5.7,1.5,10.2,4.5,13.4c3.1,3.3,7.2,5,12.3,5c5.1,0,9.2-1.7,12.3-4.9
			c3.1-3.3,4.6-7.7,4.6-13.2s-1.5-9.9-4.6-13.2c-3.1-3.3-7.2-5-12.3-5c-5,0-9.1,1.7-12.2,5C285.6,60.2,284.1,64.6,284.1,69.8z"/>
		<path class="st1" d="M341.5,41.6h13.1v5.1c2.4-2.5,4.5-4.2,6.4-5.2c1.9-1,4.1-1.5,6.8-1.5c3.5,0,7.1,1.1,10.8,3.4l-6,12
			c-2.5-1.8-4.9-2.7-7.3-2.7c-7.1,0-10.7,5.4-10.7,16.2v29.4h-13.1V41.6z"/>
		<path class="st1" d="M433.4,73.1h-40.6c0.4,4.7,1.9,8.4,4.5,11.1c2.7,2.7,6.1,4.1,10.3,4.1c3.3,0,6-0.8,8.1-2.3
			c2.1-1.6,4.5-4.4,7.2-8.6l11.1,6.2c-1.7,2.9-3.5,5.4-5.4,7.5c-1.9,2.1-3.9,3.8-6.1,5.1s-4.5,2.3-7,2.9s-5.3,0.9-8.2,0.9
			c-8.5,0-15.3-2.7-20.4-8.2c-5.1-5.5-7.7-12.7-7.7-21.8c0-9,2.5-16.2,7.5-21.8c5-5.5,11.6-8.2,19.9-8.2c8.4,0,15,2.7,19.8,8
			c4.8,5.3,7.2,12.6,7.2,22L433.4,73.1z M419.9,62.4c-1.8-7-6.2-10.5-13.2-10.5c-1.6,0-3.1,0.2-4.5,0.7c-1.4,0.5-2.7,1.2-3.8,2.1
			c-1.1,0.9-2.1,2-2.9,3.3c-0.8,1.3-1.4,2.7-1.9,4.4L419.9,62.4L419.9,62.4z"/>
	</g>
	<g>
		<path class="st1" d="M0.3,142.8c0-6.2,2.3-11.4,6.8-15.9c4.5-4.4,9.9-6.6,16.2-6.6c6.2,0,11.6,2.2,16,6.7
			c4.5,4.5,6.7,9.8,6.7,16.1c0,6.3-2.2,11.6-6.7,16c-4.5,4.4-10,6.6-16.3,6.6c-5.6,0-10.7-1.9-15.2-5.9
			C2.8,155.5,0.3,149.8,0.3,142.8z M7,142.9c0,4.8,1.6,8.8,4.9,11.9c3.2,3.1,7,4.7,11.2,4.7c4.6,0,8.5-1.6,11.6-4.8
			c3.2-3.2,4.7-7.1,4.7-11.7c0-4.7-1.6-8.6-4.7-11.7c-3.1-3.2-6.9-4.8-11.5-4.8c-4.5,0-8.4,1.6-11.5,4.8C8.6,134.4,7,138.3,7,142.9z
			"/>
		<path class="st1" d="M52.5,137.3h6.4v2.6c2.2-2.2,4.7-3.3,7.5-3.3c3.2,0,5.7,1,7.5,3c1.6,1.7,2.3,4.5,2.3,8.4v16.9h-6.4v-15.4
			c0-2.7-0.4-4.6-1.1-5.6c-0.7-1.1-2.1-1.6-4-1.6c-2.1,0-3.6,0.7-4.5,2.1c-0.9,1.4-1.3,3.8-1.3,7.2v13.3h-6.4
			C52.5,164.9,52.5,137.3,52.5,137.3z"/>
		<path class="st1" d="M89.9,117.1v47.8h-6.4v-47.8H89.9z"/>
		<path class="st1" d="M96.4,125.8c0-1.1,0.4-2.1,1.2-2.9s1.8-1.2,2.9-1.2c1.2,0,2.1,0.4,2.9,1.2c0.8,0.8,1.2,1.8,1.2,2.9
			s-0.4,2.1-1.2,2.9c-0.8,0.8-1.8,1.2-2.9,1.2s-2.1-0.4-2.9-1.2C96.8,128,96.4,127,96.4,125.8z M103.8,137.3v27.6h-6.4v-27.6H103.8z
			"/>
		<path class="st1" d="M111.2,137.3h6.4v2.6c2.2-2.2,4.7-3.3,7.5-3.3c3.2,0,5.7,1,7.5,3c1.6,1.7,2.3,4.5,2.3,8.4v16.9h-6.4v-15.4
			c0-2.7-0.4-4.6-1.1-5.6c-0.7-1.1-2.1-1.6-4-1.6c-2.1,0-3.6,0.7-4.5,2.1c-0.9,1.4-1.3,3.8-1.3,7.2v13.3h-6.4L111.2,137.3
			L111.2,137.3z"/>
		<path class="st1" d="M167.4,152.6h-19.8c0.2,2.3,0.9,4.1,2.2,5.4c1.3,1.3,3,2,5,2c1.6,0,2.9-0.4,3.9-1.1c1-0.8,2.2-2.1,3.5-4.2
			l5.4,3c-0.8,1.4-1.7,2.6-2.6,3.6c-0.9,1-1.9,1.8-3,2.5c-1.1,0.6-2.2,1.1-3.4,1.4c-1.2,0.3-2.6,0.4-4,0.4c-4.1,0-7.4-1.3-9.9-4
			c-2.5-2.7-3.7-6.2-3.7-10.6c0-4.4,1.2-7.9,3.6-10.6c2.4-2.7,5.7-4,9.7-4c4.1,0,7.3,1.3,9.6,3.9c2.3,2.6,3.5,6.1,3.5,10.7
			L167.4,152.6z M160.9,147.4c-0.9-3.4-3-5.1-6.4-5.1c-0.8,0-1.5,0.1-2.2,0.4c-0.7,0.2-1.3,0.6-1.9,1c-0.6,0.4-1,1-1.4,1.6
			s-0.7,1.3-0.9,2.1L160.9,147.4L160.9,147.4z"/>
		<path class="st1" d="M199.7,147.1v17.8h-6.6v-43.7h7.5c3.7,0,6.4,0.2,8.3,0.8c1.9,0.5,3.6,1.5,5,2.9c2.5,2.4,3.8,5.5,3.8,9.3
			c0,4-1.3,7.2-4,9.5c-2.7,2.3-6.3,3.5-10.9,3.5H199.7z M199.7,141h2.5c6.1,0,9.1-2.3,9.1-7c0-4.5-3.1-6.8-9.4-6.8h-2.2L199.7,141
			L199.7,141z"/>
		<path class="st1" d="M219.1,150.9c0-4,1.4-7.4,4.3-10.2c2.9-2.8,6.3-4.2,10.4-4.2c4.1,0,7.6,1.4,10.5,4.2
			c2.8,2.8,4.2,6.3,4.2,10.4c0,4.1-1.4,7.6-4.3,10.4c-2.9,2.8-6.4,4.2-10.6,4.2c-4.1,0-7.6-1.4-10.4-4.2
			C220.5,158.6,219.1,155.1,219.1,150.9z M225.6,151c0,2.8,0.7,4.9,2.2,6.5c1.5,1.6,3.5,2.4,6,2.4c2.5,0,4.5-0.8,6-2.4
			c1.5-1.6,2.2-3.8,2.2-6.4s-0.8-4.8-2.2-6.4c-1.5-1.6-3.5-2.4-6-2.4c-2.4,0-4.4,0.8-5.9,2.4C226.4,146.3,225.6,148.4,225.6,151z"/>
		<path class="st1" d="M260.9,179.9h-6.4v-42.6h6.4v3c2.5-2.5,5.4-3.8,8.5-3.8c3.8,0,6.9,1.4,9.4,4.2c2.5,2.8,3.7,6.3,3.7,10.5
			c0,4.1-1.2,7.6-3.7,10.3c-2.5,2.7-5.5,4.1-9.3,4.1c-3.2,0-6.1-1.3-8.7-3.9L260.9,179.9L260.9,179.9z M276,151.3
			c0-2.6-0.7-4.8-2.1-6.5c-1.5-1.7-3.3-2.5-5.5-2.5c-2.3,0-4.2,0.8-5.7,2.4c-1.5,1.6-2.2,3.8-2.2,6.4c0,2.6,0.7,4.7,2.2,6.4
			c1.4,1.6,3.3,2.5,5.7,2.5c2.2,0,4-0.8,5.5-2.5C275.3,155.8,276,153.8,276,151.3z"/>
		<path class="st1" d="M294.8,137.3v15.8c0,4.6,1.8,6.9,5.4,6.9c3.6,0,5.4-2.3,5.4-6.9v-15.8h6.4v16c0,2.2-0.3,4.1-0.8,5.7
			c-0.5,1.4-1.4,2.7-2.8,3.9c-2.1,1.9-4.9,2.8-8.2,2.8c-3.3,0-6-0.9-8.2-2.8c-1.3-1.1-2.3-2.4-2.8-3.9c-0.5-1.3-0.8-3.2-0.8-5.7v-16
			H294.8z"/>
		<path class="st1" d="M325.6,117.1v47.8h-6.4v-47.8H325.6z"/>
		<path class="st1" d="M353.4,137.3h6.4v27.6h-6.4V162c-2.6,2.4-5.5,3.7-8.5,3.7c-3.8,0-7-1.4-9.5-4.1c-2.5-2.8-3.7-6.3-3.7-10.5
			c0-4.1,1.2-7.6,3.7-10.3s5.6-4.1,9.3-4.1c3.2,0,6.1,1.3,8.6,4L353.4,137.3L353.4,137.3z M338.2,151c0,2.6,0.7,4.8,2.1,6.5
			c1.5,1.7,3.3,2.5,5.5,2.5c2.4,0,4.3-0.8,5.7-2.4c1.5-1.7,2.2-3.8,2.2-6.4s-0.7-4.7-2.2-6.4c-1.5-1.6-3.3-2.5-5.7-2.5
			c-2.2,0-4,0.8-5.5,2.5C339,146.4,338.2,148.5,338.2,151z"/>
		<path class="st1" d="M367.1,137.3h6.4v2.5c1.2-1.2,2.2-2.1,3.1-2.5c0.9-0.5,2-0.7,3.3-0.7c1.7,0,3.4,0.6,5.3,1.6l-2.9,5.8
			c-1.2-0.9-2.4-1.3-3.5-1.3c-3.5,0-5.2,2.6-5.2,7.9v14.3h-6.4L367.1,137.3L367.1,137.3z"/>
		<path class="st1" d="M387.8,125.8c0-1.1,0.4-2.1,1.2-2.9s1.8-1.2,2.9-1.2c1.1,0,2.1,0.4,3,1.2c0.8,0.8,1.2,1.8,1.2,2.9
			s-0.4,2.1-1.2,2.9c-0.8,0.8-1.8,1.2-2.9,1.2s-2.1-0.4-3-1.2S387.8,127,387.8,125.8z M395.1,137.3v27.6h-6.4v-27.6H395.1z"/>
		<path class="st1" d="M409.4,143.2v21.6h-6.4v-21.6h-2.7v-5.9h2.7v-10.1h6.4v10.1h5v5.9H409.4z"/>
		<path class="st1" d="M428.9,159.8l-12.4-22.5h7.4l8.4,15.9l7.9-15.9h7.2l-22,42.6h-7.3L428.9,159.8z"/>
		<path class="st1" d="M477.1,121.2v43.7h-6.6v-43.7C470.5,121.2,477.1,121.2,477.1,121.2z"/>
		<path class="st1" d="M485.6,137.3h6.4v2.6c2.2-2.2,4.7-3.3,7.5-3.3c3.2,0,5.7,1,7.5,3c1.5,1.7,2.3,4.5,2.3,8.4v16.9h-6.4v-15.4
			c0-2.7-0.4-4.6-1.1-5.6c-0.7-1.1-2.1-1.6-4-1.6c-2.1,0-3.6,0.7-4.5,2.1c-0.9,1.4-1.3,3.8-1.3,7.2v13.3h-6.4L485.6,137.3
			L485.6,137.3z"/>
		<path class="st1" d="M536.9,117.1h6.4v47.8h-6.4V162c-2.5,2.4-5.3,3.7-8.5,3.7c-3.8,0-6.9-1.4-9.4-4.1c-2.5-2.8-3.7-6.3-3.7-10.5
			c0-4.1,1.2-7.6,3.7-10.3c2.5-2.8,5.5-4.2,9.3-4.2c3.2,0,6.1,1.3,8.7,4L536.9,117.1L536.9,117.1z M521.8,151c0,2.6,0.7,4.8,2.1,6.5
			c1.5,1.7,3.3,2.5,5.5,2.5c2.4,0,4.3-0.8,5.7-2.4c1.5-1.7,2.2-3.8,2.2-6.4s-0.7-4.7-2.2-6.4c-1.5-1.6-3.3-2.5-5.7-2.5
			c-2.2,0-4,0.8-5.5,2.5C522.5,146.4,521.8,148.5,521.8,151z"/>
		<path class="st1" d="M575.8,152.6H556c0.2,2.3,0.9,4.1,2.2,5.4c1.3,1.3,3,2,5,2c1.6,0,2.9-0.4,3.9-1.1c1-0.8,2.2-2.1,3.5-4.2
			l5.4,3c-0.8,1.4-1.7,2.6-2.6,3.6s-1.9,1.8-3,2.5c-1.1,0.6-2.2,1.1-3.4,1.4s-2.6,0.4-4,0.4c-4.1,0-7.4-1.3-9.9-4
			c-2.5-2.7-3.7-6.2-3.7-10.6c0-4.4,1.2-7.9,3.6-10.6c2.4-2.7,5.7-4,9.7-4c4.1,0,7.3,1.3,9.6,3.9c2.3,2.6,3.5,6.1,3.5,10.7
			L575.8,152.6z M569.2,147.4c-0.9-3.4-3-5.1-6.4-5.1c-0.8,0-1.5,0.1-2.2,0.4c-0.7,0.2-1.3,0.6-1.9,1s-1,1-1.4,1.6s-0.7,1.3-0.9,2.1
			L569.2,147.4L569.2,147.4z"/>
		<path class="st1" d="M589.1,149.9l-9.9-12.7h7.6l6.2,8l6.3-8h7.8l-10.2,12.7l11.8,14.9H601l-8.1-10.3l-8.3,10.3h-7.8L589.1,149.9z
			"/>
	</g>
</g>
</svg>
