<?xml version="1.0" encoding="utf-8"?>
<!-- Generator: Adobe Illustrator 26.2.1, SVG Export Plug-In . SVG Version: 6.00 Build 0)  -->
<svg version="1.1" id="Layer_1" xmlns="http://www.w3.org/2000/svg" xmlns:xlink="http://www.w3.org/1999/xlink" x="0px" y="0px"
	 viewBox="0 0 700 100" style="enable-background:new 0 0 700 100;" xml:space="preserve">
<style type="text/css">
	.st0{fill:#231F20;}
</style>
<g>
	<path class="st0" d="M13.57,62.04v36.52H0V8.63h15.38c7.53,0,13.22,0.52,17.06,1.57c3.88,1.05,7.3,3.03,10.25,5.94
		c5.16,5.05,7.75,11.42,7.75,19.1c0,8.23-2.76,14.76-8.27,19.57c-5.51,4.82-12.95,7.22-22.31,7.22H13.57z M13.57,49.46h5.07
		c12.46,0,18.7-4.79,18.7-14.39c0-9.28-6.43-13.92-19.28-13.92h-4.48V49.46z"/>
	<path class="st0" d="M52.22,69.78c0-8.19,2.93-15.16,8.79-20.91c5.86-5.74,13.01-8.62,21.43-8.62c8.46,0,15.65,2.89,21.55,8.68
		c5.82,5.79,8.74,12.89,8.74,21.32c0,8.5-2.93,15.63-8.79,21.37c-5.9,5.71-13.14,8.56-21.72,8.56c-8.5,0-15.63-2.91-21.37-8.74
		C55.09,85.7,52.22,78.48,52.22,69.78z M65.61,70.02c0,5.67,1.51,10.16,4.54,13.45c3.11,3.34,7.2,5.01,12.29,5.01
		c5.13,0,9.22-1.65,12.29-4.95c3.07-3.3,4.6-7.71,4.6-13.22c0-5.51-1.53-9.92-4.6-13.22c-3.11-3.34-7.2-5.01-12.29-5.01
		c-5.01,0-9.07,1.67-12.17,5.01C67.17,60.43,65.61,64.74,65.61,70.02z"/>
	<path class="st0" d="M136.12,0.18v98.37h-13.1V0.18H136.12z"/>
	<path class="st0" d="M147.16,18.24c0-2.29,0.83-4.27,2.5-5.94c1.67-1.67,3.67-2.5,6-2.5c2.37,0,4.39,0.84,6.06,2.5
		c1.67,1.63,2.5,3.63,2.5,6c0,2.37-0.84,4.39-2.5,6.06c-1.63,1.67-3.63,2.5-6,2.5c-2.37,0-4.39-0.83-6.06-2.5
		C147.99,22.69,147.16,20.65,147.16,18.24z M162.24,41.83v56.73h-13.1V41.83H162.24z"/>
	<path class="st0" d="M208.23,51.5l-10.83,5.77c-1.71-3.49-3.83-5.24-6.35-5.24c-1.2,0-2.23,0.4-3.09,1.19
		c-0.86,0.8-1.28,1.82-1.28,3.06c0,2.18,2.52,4.33,7.57,6.46c6.95,2.99,11.63,5.75,14.04,8.27c2.41,2.53,3.61,5.92,3.61,10.19
		c0,5.47-2.02,10.06-6.06,13.75c-3.92,3.49-8.66,5.24-14.21,5.24c-9.51,0-16.25-4.64-20.21-13.92l11.18-5.18
		c1.55,2.72,2.74,4.45,3.55,5.18c1.59,1.48,3.49,2.21,5.71,2.21c4.43,0,6.64-2.02,6.64-6.06c0-2.33-1.71-4.5-5.13-6.52
		c-1.32-0.66-2.64-1.3-3.96-1.92c-1.32-0.62-2.66-1.26-4.02-1.92c-3.81-1.86-6.48-3.73-8.04-5.59c-1.98-2.37-2.97-5.42-2.97-9.14
		c0-4.93,1.69-9.01,5.07-12.23c3.45-3.22,7.65-4.83,12.58-4.83C199.3,40.26,204.7,44,208.23,51.5z"/>
	<path class="st0" d="M264.23,44.27v17.41c-2.99-3.65-5.67-6.15-8.04-7.51c-2.33-1.4-5.07-2.1-8.21-2.1
		c-4.93,0-9.03,1.73-12.29,5.18c-3.26,3.46-4.89,7.79-4.89,12.99c0,5.32,1.57,9.69,4.72,13.1c3.18,3.42,7.24,5.13,12.17,5.13
		c3.15,0,5.92-0.68,8.33-2.04c2.33-1.32,5.07-3.88,8.21-7.69v17.3c-5.32,2.76-10.64,4.14-15.96,4.14c-8.78,0-16.11-2.83-22.02-8.5
		c-5.9-5.71-8.85-12.79-8.85-21.26c0-8.46,2.99-15.61,8.97-21.43c5.98-5.82,13.32-8.74,22.02-8.74
		C253.98,40.26,259.26,41.59,264.23,44.27z"/>
	<path class="st0" d="M270.67,69.78c0-8.19,2.93-15.16,8.79-20.91c5.86-5.74,13.01-8.62,21.43-8.62c8.46,0,15.65,2.89,21.55,8.68
		c5.82,5.79,8.74,12.89,8.74,21.32c0,8.5-2.93,15.63-8.79,21.37c-5.9,5.71-13.14,8.56-21.72,8.56c-8.5,0-15.63-2.91-21.37-8.74
		C273.54,85.7,270.67,78.48,270.67,69.78z M284.07,70.02c0,5.67,1.51,10.16,4.54,13.45c3.11,3.34,7.2,5.01,12.29,5.01
		c5.13,0,9.22-1.65,12.29-4.95c3.07-3.3,4.6-7.71,4.6-13.22c0-5.51-1.53-9.92-4.6-13.22c-3.11-3.34-7.2-5.01-12.29-5.01
		c-5.01,0-9.07,1.67-12.17,5.01C285.62,60.43,284.07,64.74,284.07,70.02z"/>
	<path class="st0" d="M341.47,41.83h13.1v5.07c2.41-2.52,4.54-4.25,6.41-5.18c1.9-0.97,4.15-1.46,6.76-1.46
		c3.45,0,7.07,1.13,10.83,3.38l-6,12c-2.49-1.78-4.91-2.68-7.28-2.68c-7.15,0-10.72,5.4-10.72,16.19v29.41h-13.1V41.83z"/>
	<path class="st0" d="M433.35,73.28H392.7c0.35,4.66,1.86,8.37,4.54,11.12c2.68,2.72,6.12,4.08,10.31,4.08
		c3.26,0,5.96-0.78,8.1-2.33c2.1-1.55,4.48-4.43,7.16-8.62l11.07,6.17c-1.71,2.91-3.52,5.41-5.42,7.48
		c-1.9,2.08-3.94,3.79-6.12,5.13c-2.18,1.34-4.52,2.32-7.05,2.94c-2.53,0.62-5.26,0.93-8.21,0.93c-8.47,0-15.26-2.72-20.38-8.15
		c-5.13-5.47-7.69-12.73-7.69-21.78c0-8.97,2.48-16.23,7.45-21.78c5.01-5.47,11.65-8.21,19.92-8.21c8.35,0,14.95,2.66,19.8,7.98
		c4.81,5.28,7.22,12.6,7.22,21.96L433.35,73.28z M419.9,62.56c-1.83-6.99-6.23-10.48-13.22-10.48c-1.59,0-3.09,0.24-4.48,0.73
		c-1.4,0.49-2.67,1.19-3.81,2.1c-1.15,0.91-2.13,2.01-2.94,3.29c-0.82,1.28-1.44,2.74-1.86,4.37H419.9z"/>
</g>
<g>
	<path class="st0" d="M537.67,13.59v16.03c-7.8-6.54-15.86-9.82-24.2-9.82c-9.19,0-16.92,3.31-23.21,9.93
		c-6.33,6.58-9.49,14.64-9.49,24.16c0,9.41,3.16,17.35,9.49,23.81c6.33,6.47,14.09,9.7,23.27,9.7c4.75,0,8.78-0.77,12.1-2.32
		c1.85-0.77,3.77-1.82,5.76-3.14c1.99-1.32,4.08-2.9,6.28-4.76v16.32c-7.72,4.38-15.82,6.56-24.31,6.56
		c-12.77,0-23.68-4.47-32.71-13.42c-8.99-9.02-13.49-19.9-13.49-32.64c0-11.42,3.76-21.61,11.29-30.55
		c9.26-10.96,21.25-16.44,35.95-16.44C522.42,7.03,530.18,9.22,537.67,13.59z"/>
	<path class="st0" d="M548.64,0.07h13.03V47.2c4.63-4.26,9.74-6.39,15.34-6.39c6.37,0,11.46,2.11,15.28,6.34
		c3.24,3.67,4.86,9.53,4.86,17.58v35.35h-13.02v-34.1c0-4.62-0.8-7.96-2.4-10.04c-1.6-2.07-4.18-3.11-7.73-3.11
		c-4.55,0-7.76,1.44-9.61,4.32c-1.81,2.92-2.72,7.93-2.72,15.04v27.89h-13.03V0.07z"/>
	<path class="st0" d="M649.29,41.76h13.08v56.38h-13.08v-5.9c-5.36,5.02-11.13,7.53-17.31,7.53c-7.8,0-14.24-2.82-19.33-8.45
		c-5.06-5.75-7.58-12.93-7.58-21.53c0-8.45,2.53-15.49,7.58-21.13c5.06-5.63,11.38-8.45,18.99-8.45c6.56,0,12.45,2.7,17.66,8.1
		V41.76z M618.37,69.78c0,5.4,1.45,9.8,4.34,13.2c2.97,3.44,6.72,5.15,11.23,5.15c4.82,0,8.72-1.66,11.69-4.98
		c2.97-3.43,4.46-7.8,4.46-13.08c0-5.29-1.49-9.65-4.46-13.08c-2.97-3.36-6.83-5.04-11.58-5.04c-4.48,0-8.22,1.7-11.23,5.09
		C619.86,60.48,618.37,64.73,618.37,69.78z"/>
	<path class="st0" d="M689.87,54.74v45.33h-13.03V54.74h-5.56V42.28h5.56V21.1h13.03v21.18H700v12.46H689.87z"/>
</g>
</svg>
